HIERARCHY
ROOT reference
{
	OFFSET 0.000000 0.000000 0.000000
	CHANNELS 6 Xposition Yposition Zposition Xrotation Yrotation Zrotation
	JOINT root
	{
		OFFSET 0.000000 88.267502 0.000000
		CHANNELS 3 Xrotation Yrotation Zrotation
		JOINT Hips
		{
			OFFSET 0.000000 0.000000 0.000000
			CHANNELS 3 Xrotation Yrotation Zrotation
			JOINT Spine
			{
				OFFSET 0.013598 -0.105469 -0.026472
				CHANNELS 3 Xrotation Yrotation Zrotation
				JOINT Spine1
				{
					OFFSET -5.027490 17.193298 4.853550
					CHANNELS 3 Xrotation Yrotation Zrotation
					JOINT Spine2
					{
						OFFSET -6.489560 17.043396 3.457120
						CHANNELS 3 Xrotation Yrotation Zrotation
						JOINT Neck
						{
							OFFSET -8.669389 15.586197 5.140711
							CHANNELS 3 Xrotation Yrotation Zrotation
							JOINT Head
							{
								OFFSET -6.523951 8.554825 4.152540
								CHANNELS 3 Xrotation Yrotation Zrotation
								End Site
								{
									OFFSET 0.000000 0.100006 0.000000
								}
							}
						}
						JOINT RightShoulder
						{
							OFFSET -11.633702 14.542297 3.299631
							CHANNELS 3 Xrotation Yrotation Zrotation
							JOINT RightArm
							{
								OFFSET -12.870300 -8.032135 -5.333379
								CHANNELS 3 Xrotation Yrotation Zrotation
								JOINT RightForearm
								{
									OFFSET -25.966301 -13.786201 -0.595353
									CHANNELS 3 Xrotation Yrotation Zrotation
									JOINT RightHand
									{
										OFFSET -20.889702 -1.520027 13.517000
										CHANNELS 3 Xrotation Yrotation Zrotation
										End Site
										{
											OFFSET 0.000000 0.099998 0.000000
										}
									}
								}
							}
						}
						JOINT LeftShoulder
						{
							OFFSET -5.713748 16.618195 6.992730
							CHANNELS 3 Xrotation Yrotation Zrotation
							JOINT LeftArm
							{
								OFFSET 14.245000 3.247314 6.718699
								CHANNELS 3 Xrotation Yrotation Zrotation
								JOINT LeftForearm
								{
									OFFSET 23.957703 -14.592697 -8.817431
									CHANNELS 3 Xrotation Yrotation Zrotation
									JOINT LeftHand
									{
										OFFSET 7.512081 -21.311096 10.526399
										CHANNELS 3 Xrotation Yrotation Zrotation
										End Site
										{
											OFFSET 0.000000 0.099998 0.000000
										}
									}
								}
							}
						}
					}
				}
			}
			JOINT RightUpLeg
			{
				OFFSET -8.373460 -0.383102 -4.593210
				CHANNELS 3 Xrotation Yrotation Zrotation
				JOINT RightLeg
				{
					OFFSET -19.965099 -39.044300 10.204901
					CHANNELS 3 Xrotation Yrotation Zrotation
					JOINT RightFoot
					{
						OFFSET -1.147751 -40.875702 -4.840429
						CHANNELS 3 Xrotation Yrotation Zrotation
						JOINT RightToe
						{
							OFFSET -13.504299 -6.853460 9.736710
							CHANNELS 3 Xrotation Yrotation Zrotation
							End Site
							{
								OFFSET 0.000000 0.100000 0.000000
							}
						}
					}
				}
			}
			JOINT LeftUpLeg
			{
				OFFSET 8.373440 0.383095 4.593220
				CHANNELS 3 Xrotation Yrotation Zrotation
				JOINT LeftLeg
				{
					OFFSET 13.247400 -42.688202 5.424768
					CHANNELS 3 Xrotation Yrotation Zrotation
					JOINT LeftFoot
					{
						OFFSET 12.334200 -37.687500 -11.094801
						CHANNELS 3 Xrotation Yrotation Zrotation
						JOINT LeftToe
						{
							OFFSET -0.239281 -7.519040 16.356800
							CHANNELS 3 Xrotation Yrotation Zrotation
							End Site
							{
								OFFSET 0.000000 0.100000 0.000000
							}
						}
					}
				}
			}
		}
	}
}
MOTION
Frames: 12
Frame Time: 0.041667
-1.548470 0.000000 -0.183773 -0.000000 0.000000 -0.000000 0.501558 -0.017365 0.015227 0.016342 0.011263 -0.030731 -0.082855 0.143250 -0.104799 -0.146758 0.195526 -0.143501 -0.112200 0.122561 -0.097894 -0.200225 -0.111399 -0.018230 -0.342263 -0.084597 -0.179758 0.112432 -0.253772 0.000458 -0.531804 -1.082285 -1.201517 -0.850932 1.692545 -1.139097 0.798242 -0.379876 -3.534255 -0.032362 -0.360204 0.305255 -2.010999 -0.076278 1.643241 -0.610367 -0.562009 -0.715451 -0.687329 1.007699 -0.082319 -1.939847 0.636529 -1.972783 3.180368 -0.453645 4.038527 -2.783440 0.529242 -0.424365 -0.136554 -0.022617 0.567861 -2.142212 -0.384532 0.705883 2.889480 0.914211 0.093183 -1.308555 -0.534194 -0.420378 -0.000000 -0.000000 0.000000 
-4.671900 0.000000 -0.385337 -0.000000 0.000000 -0.000000 1.524181 0.334207 -0.267652 -0.051024 -0.035471 0.096015 -0.168626 0.185311 -0.006652 -0.259720 0.187846 -0.023147 -0.189279 0.107986 -0.017519 -0.633536 0.011624 -0.385416 -0.780592 0.437620 -1.000362 0.007952 -0.503149 0.637360 0.414869 -2.847405 -0.619005 -3.476203 7.494662 -4.802112 3.155509 -1.526957 -12.473203 0.363426 -0.966334 -0.004170 -4.661526 0.217574 3.234611 -0.318940 -0.295440 -0.374119 -1.080614 1.185035 0.282527 -5.732153 0.766058 -6.170756 7.523260 -0.707803 9.536219 -4.147474 -0.385759 -3.425667 -0.306577 -0.028192 0.902667 -6.652673 -1.751657 2.636116 9.249286 2.935331 0.135358 -4.194030 -1.714242 -1.031403 -0.000001 0.000000 0.000000 
-6.648270 0.000000 -0.453063 -0.000000 0.000000 -0.000000 1.723771 0.329284 -0.054093 -0.110015 -0.076433 0.207100 0.066953 0.145675 0.133373 0.084784 0.134166 0.161433 0.045630 0.095611 0.111783 -1.056670 0.182951 -0.786849 -1.161200 1.004094 -1.872441 0.017009 -0.531622 0.647853 1.883308 -3.803031 3.461085 -5.558167 12.865489 -7.931418 3.861344 -2.602191 -16.429516 0.623180 -0.976547 -0.467489 -4.828314 0.441837 2.668033 0.504748 0.475521 0.593370 -1.319793 1.670010 0.522540 -7.161912 0.398555 -8.262421 7.880350 -0.710129 9.987926 -3.035550 -2.201476 -5.529706 -0.306424 -0.030712 0.939975 -8.129851 -2.238773 3.505414 11.857529 3.762412 0.087738 -5.502395 -2.018675 -1.504883 0.000002 -0.000000 0.000000 
-11.071600 0.000000 -0.362658 -0.000000 0.000000 -0.000000 2.235550 0.311038 2.334574 -0.099245 -0.069015 0.186812 0.253300 0.268995 0.208628 0.310972 0.352135 0.270475 0.181352 0.258682 0.190259 -1.575746 0.519342 -2.021179 -1.055056 2.154955 -4.119448 -0.980026 0.549504 2.202723 8.656857 -6.032196 14.515047 -9.516772 26.096153 -15.004420 6.482627 -2.245623 -20.286761 1.649403 -1.341876 -2.053268 -2.450763 -0.973008 0.420435 3.604202 3.621041 4.275555 -1.444628 2.238771 0.232515 -10.280495 1.004830 -12.703484 11.330819 -0.587452 14.353875 -1.374522 -2.998049 -7.796542 -0.305977 -0.037835 1.045620 -9.082311 -2.756188 4.237358 13.437468 4.261531 0.040595 -6.304178 -1.711414 -3.405012 -0.000001 -0.000000 0.000000 
-13.705600 0.000000 -0.267386 -0.000000 0.000000 -0.000000 2.560707 0.079512 3.772724 -0.093592 -0.065077 0.176157 0.193552 0.396025 0.293904 0.199603 0.519734 0.388289 0.092578 0.362845 0.270321 -2.010703 0.955949 -2.996274 -0.938470 3.390926 -5.845582 -1.359801 1.485182 2.075324 12.046208 -5.359245 19.810533 -10.652098 31.256223 -17.656348 9.494714 -1.865549 -21.587909 1.688085 -0.547271 -2.647668 -1.142296 -2.274589 -1.378630 5.775257 6.073930 6.901325 -0.132884 -0.849374 0.514342 -11.478346 1.651899 -13.281020 13.175278 -0.413501 16.690949 -0.126396 -3.247291 -11.264017 -3.701689 0.061635 2.519050 -7.578506 -2.646537 4.841633 10.543091 3.345967 0.116452 -4.902338 -0.976281 -4.519369 -0.000001 -0.000000 0.000000 
-16.533400 0.000000 -0.411276 -0.000000 0.000000 -0.000000 2.842965 -0.287813 4.996992 -0.087772 -0.060942 0.165193 0.095796 0.532888 0.326578 0.034966 0.692633 0.432661 -0.031852 0.467326 0.299675 -2.328521 1.348182 -3.651954 -0.855808 4.414455 -6.984968 -1.558763 2.337219 1.507464 14.160342 -4.903771 21.364960 -11.219964 34.336491 -19.243901 12.807452 -0.818863 -21.488796 1.568940 0.215520 -2.947032 -0.345340 -2.272879 -2.409057 7.436529 8.104019 8.942304 0.272954 -1.418728 0.237426 -12.136529 2.310670 -12.947405 14.335640 -0.265033 18.163203 -0.143825 -3.541493 -14.808123 -3.592022 0.044392 2.537551 -4.046767 -1.650522 5.897414 3.402301 1.076922 0.104890 -0.499434 0.654635 -4.998216 0.361862 -0.014511 0.248173 
-22.804399 0.000000 -1.314098 -0.000000 0.000000 -0.000000 3.669631 -0.365280 4.597053 -1.172945 -0.846033 2.228072 -0.192006 1.665883 0.134661 -0.217454 1.016846 -0.189698 -0.220678 0.672942 -0.124613 -2.155132 1.269935 -3.409795 -0.775143 4.210080 -6.455596 -1.549810 3.697977 -0.355482 13.485774 -10.742183 11.890999 -11.125508 33.790711 -18.961659 14.616618 3.008147 -15.880050 1.047127 0.649636 -2.320113 -0.255871 0.295690 0.646143 8.578658 9.582784 10.364216 -0.142101 -0.366762 -0.265238 -11.880201 1.661576 -8.790237 13.866559 -0.328701 17.567795 -1.279645 -2.843967 -20.666619 -2.042146 -0.071715 3.210841 5.313381 6.922143 7.185676 -21.538015 -6.432421 -2.096111 24.315554 8.979232 -7.742588 -6.797894 0.389183 -5.933318 
-26.984699 0.000000 -1.574408 -0.000000 0.000000 -0.000000 3.495647 0.282454 4.050890 -1.640225 -1.202837 3.128830 0.005525 2.150730 -0.051028 0.116736 1.231447 -0.584478 -0.007346 0.845889 -0.386739 -2.046093 0.794987 -2.888434 -1.119581 3.179782 -5.669462 -1.680754 4.490285 -1.031370 9.689557 -15.806284 2.027771 -9.984099 28.098041 -16.034600 10.617082 3.648728 -10.846649 0.747646 0.292243 -1.546503 -1.900543 0.985658 4.855674 8.460866 9.426980 10.216765 -0.048951 -1.322361 -0.067428 -11.450875 -0.127205 -5.826054 13.274593 -0.401998 16.816926 -0.544677 -2.520526 -20.227421 -4.099871 0.262416 0.924651 4.787322 7.627364 7.195160 -21.538016 -6.432415 -2.096111 29.938833 9.573231 -12.766739 -8.746037 0.082903 -5.114306 
-38.656898 0.000000 -1.808687 -0.000000 0.000000 -0.000000 1.852758 1.717441 4.198689 -1.130862 -0.814454 2.147335 0.264796 2.106286 0.227041 0.277383 1.855351 -0.005789 0.050069 1.274988 0.014144 -1.723729 -0.220695 -2.490137 -1.136057 1.044971 -5.164052 -2.415932 6.483766 -1.591593 7.717028 -18.290806 -21.967096 -0.664283 1.314121 -0.887514 -7.085529 1.922580 3.129671 0.171582 -0.619383 0.109663 -5.735597 -0.151163 12.127719 8.847574 9.941450 10.701574 -0.743811 -1.396082 -0.192148 -11.727370 -0.822352 -5.326533 17.121503 0.216251 21.706859 -0.283108 2.012706 5.258887 -6.545915 4.636689 -29.976297 9.012305 1.923150 6.803408 -21.587866 -6.446064 -2.103667 26.817858 5.060698 -23.917323 -1.044329 -0.051341 0.572162 
-53.892399 0.000000 -1.791396 -0.000000 0.000000 -0.000000 0.905298 2.048738 4.308619 -0.672159 -0.476340 1.271261 0.411717 2.031202 0.857190 0.325176 2.268134 1.012397 0.044693 1.549310 0.710779 -1.724959 -0.708750 -2.682637 -1.115937 0.133405 -5.660708 -1.427105 5.475897 -3.033272 17.793164 -15.935397 -27.282962 7.632870 -12.163908 9.579581 -16.905963 -0.480339 12.245330 0.701477 -1.733004 -0.101543 -8.291232 0.127069 14.336919 9.459636 10.772664 11.472784 -1.556169 -0.428976 -0.197351 -11.511321 -0.044895 -8.138373 19.435148 0.752576 24.662968 -0.454583 2.752425 14.095809 -6.347625 4.600482 -34.848230 3.706513 -0.239164 5.769065 -7.185407 -2.239617 -0.429585 19.190035 1.438991 -23.393919 -0.606953 0.228058 2.564450 
-69.617996 0.000000 -1.759295 -0.000000 0.000000 -0.000000 0.024904 1.307128 2.999112 -0.828392 -0.590328 1.568851 0.866468 1.851981 2.100490 0.988648 2.026317 2.722968 0.499456 1.418028 1.882254 -2.089350 -0.407240 -3.164751 -1.263661 0.763176 -6.615644 0.428375 4.286185 -6.574274 36.284038 -11.297486 -26.113022 13.965527 -19.297950 17.018639 -32.386551 -4.174142 28.008705 0.974228 -0.963526 -1.106637 -12.418304 3.688722 17.814726 10.927920 12.856560 13.346255 -2.468500 0.546270 -0.100229 -5.572775 4.069502 -13.490354 11.796863 -0.550665 14.944107 3.053948 -3.858108 11.902878 -4.436457 1.221837 -11.145664 8.359691 11.119961 4.929215 -21.527225 -6.429462 -2.094460 27.092879 7.646950 -14.283999 -4.919745 -0.159880 2.952571 
-82.495102 0.000000 -1.742004 -0.000000 0.000000 -0.000000 0.047266 1.012097 1.977738 -1.250019 -0.904097 2.376106 0.782018 1.760946 2.378178 1.001009 1.528855 3.008790 0.539896 1.079166 2.071150 -2.030187 0.069252 -3.311027 -0.929404 1.605599 -6.688432 0.327406 4.851532 -6.992407 33.679386 -10.505359 -25.590598 12.037714 -17.346234 14.785700 -33.089343 -0.936188 30.325063 0.045404 0.834056 -0.653511 -12.959719 5.333434 18.335271 11.797174 14.153530 14.472684 -2.759996 0.754226 -0.021980 0.089356 7.239680 -15.075604 4.441132 -0.570565 5.635872 2.876843 -3.753588 13.005998 -3.134199 0.610453 -4.220478 7.030805 14.388304 6.784041 -21.557547 -6.437749 -2.099058 24.796630 7.535293 -11.869880 -4.368059 -0.114007 -0.688762 
